<svg  viewBox="0 0 1456 350" fill="none" xmlns="http://www.w3.org/2000/svg">
<path d="M239.413 1.3698H111.404C50.8349 1.3698 1.73349 50.4712 1.73349 111.041V239.05C1.73349 299.619 50.8349 348.721 111.404 348.721H239.413C299.983 348.721 349.085 299.619 349.085 239.05V111.041C349.085 50.4712 299.983 1.3698 239.413 1.3698Z" fill="url(#paint0_linear_2_7)"/>
<path d="M239.413 1.3698H111.404C50.8349 1.3698 1.73349 50.4712 1.73349 111.041V239.05C1.73349 299.619 50.8349 348.721 111.404 348.721H239.413C299.983 348.721 349.085 299.619 349.085 239.05V111.041C349.085 50.4712 299.983 1.3698 239.413 1.3698Z" stroke="#F33004" stroke-width="2.11409"/>
<path fill-rule="evenodd" clip-rule="evenodd" d="M197.844 85.777C199.101 86.474 200.089 87.572 200.649 88.896C201.208 90.22 201.309 91.694 200.933 93.081L183.84 155.748H246.204C247.459 155.747 248.686 156.113 249.736 156.801C250.785 157.489 251.611 158.468 252.11 159.62C252.61 160.771 252.762 162.043 252.547 163.279C252.333 164.515 251.762 165.662 250.904 166.578L160.799 263.115C159.813 264.154 158.51 264.835 157.094 265.05C155.678 265.266 154.231 265.003 152.98 264.305C151.73 263.606 150.748 262.511 150.19 261.192C149.632 259.873 149.528 258.406 149.897 257.022L166.977 194.368H104.614C103.359 194.369 102.131 194.003 101.082 193.315C100.032 192.627 99.207 191.647 98.708 190.496C98.208 189.345 98.056 188.073 98.27 186.837C98.485 185.6 99.056 184.454 99.914 183.538L190.019 87C191.001 85.954 192.304 85.266 193.721 85.044C195.139 84.823 196.59 85.08 197.844 85.777Z" fill="white"/>
<path d="M517.406 237.996C482.421 237.996 456.642 211.527 456.642 177.232C456.642 142.937 482.421 116.468 517.406 116.468C539.963 116.468 559.527 128.436 568.964 146.159L543.415 161.12C538.812 151.683 528.915 145.699 517.176 145.699C499.453 145.699 486.333 158.819 486.333 177.232C486.333 195.415 499.453 208.535 517.176 208.535C529.145 208.535 539.042 202.781 543.645 193.344L569.424 208.075C559.527 226.028 539.963 237.996 517.406 237.996ZM635.689 237.996C601.854 237.996 574.924 211.527 574.924 177.232C574.924 142.937 601.854 116.468 635.689 116.468C669.523 116.468 696.683 142.937 696.683 177.232C696.683 211.527 669.523 237.996 635.689 237.996ZM635.689 208.995C653.411 208.995 666.991 195.876 666.991 177.232C666.991 158.588 653.411 145.469 635.689 145.469C618.196 145.469 604.616 158.588 604.616 177.232C604.616 195.876 618.184 208.995 635.689 208.995ZM842.428 116.468C868.667 116.468 885.93 135.111 885.93 163.882V234.774H856.25V165.954C856.25 152.374 849.345 144.088 836.904 144.088C823.785 144.088 815.499 152.834 815.499 170.097V234.774H785.819V165.954C785.819 152.374 778.914 144.088 766.473 144.088C753.813 144.088 744.837 152.834 744.837 170.097V234.774H715.157V119.69H744.837V131.889C751.282 122.222 762.099 116.468 776.83 116.468C791.101 116.468 801.688 122.452 808.133 133.04C815.28 122.682 826.789 116.468 842.428 116.468ZM975.71 116.468C1006.55 116.468 1031.87 142.937 1031.87 177.232C1031.87 211.527 1006.55 237.996 975.71 237.996C958.906 237.996 946.707 231.782 938.421 221.194V280.808H908.729V119.69H938.409V133.27C946.707 122.682 958.906 116.468 975.71 116.468ZM970.18 209.686C988.6 209.686 1002.17 196.566 1002.17 177.232C1002.17 157.898 988.6 144.778 970.18 144.778C952.001 144.778 938.421 157.898 938.421 177.232C938.421 196.566 951.988 209.686 970.18 209.686ZM1105.16 237.996C1071.32 237.996 1044.4 211.527 1044.4 177.232C1044.4 142.937 1071.32 116.468 1105.16 116.468C1138.99 116.468 1166.15 142.937 1166.15 177.232C1166.15 211.527 1138.99 237.996 1105.16 237.996ZM1105.16 208.995C1122.88 208.995 1136.46 195.876 1136.46 177.232C1136.46 158.588 1122.89 145.469 1105.16 145.469C1087.67 145.469 1074.09 158.588 1074.09 177.232C1074.09 195.876 1087.67 208.995 1105.16 208.995ZM1209.55 152.374C1209.55 169.406 1268.93 158.819 1268.93 201.17C1268.93 226.028 1247.29 237.996 1222.67 237.996C1199.65 237.996 1182.62 228.329 1174.33 210.606L1200.11 196.106C1203.33 205.543 1211.16 211.067 1222.67 211.067C1232.1 211.067 1238.55 207.844 1238.55 201.17C1238.55 184.367 1179.15 193.574 1179.15 153.064C1179.15 129.587 1199.18 116.468 1222.9 116.468C1241.54 116.468 1257.65 124.984 1266.63 140.865L1241.31 154.675C1237.86 147.31 1231.41 142.937 1222.9 142.937C1215.53 142.937 1209.55 146.159 1209.55 152.374ZM1300.33 105.88C1295.52 105.829 1290.93 103.897 1287.53 100.498C1284.13 97.099 1282.2 92.503 1282.15 87.696C1282.15 77.799 1290.43 69.283 1300.33 69.283C1310.46 69.283 1318.74 77.799 1318.74 87.696C1318.74 97.594 1310.46 105.88 1300.33 105.88ZM1285.6 234.774V119.69H1315.29V234.774H1285.6ZM1394.82 237.996C1360.99 237.996 1334.06 211.527 1334.06 177.232C1334.06 142.937 1360.99 116.468 1394.82 116.468C1428.66 116.468 1455.82 142.937 1455.82 177.232C1455.82 211.527 1428.66 237.996 1394.82 237.996ZM1394.82 208.995C1412.54 208.995 1426.12 195.876 1426.12 177.232C1426.12 158.588 1412.54 145.469 1394.82 145.469C1377.33 145.469 1363.75 158.588 1363.75 177.232C1363.75 195.876 1377.33 208.995 1394.82 208.995Z" fill="#292929"/>
<defs>
<linearGradient id="paint0_linear_2_7" x1="175.409" y1="-0.601499" x2="175.409" y2="350.692" gradientUnits="userSpaceOnUse">
<stop stop-color="#FF8267"/>
<stop offset="0.71" stop-color="#F15836"/>
<stop offset="1" stop-color="#F33004"/>
</linearGradient>
</defs>
</svg>
