<svg width="142" height="96" viewBox="0 0 142 96" fill="none" xmlns="http://www.w3.org/2000/svg">
<path d="M128.91 38.2069C127.389 39.0909 126.628 40.247 126.624 41.4053L126.587 54.5465C126.59 53.3883 127.352 52.2311 128.873 51.3482L140.721 44.4631L140.758 31.3218L128.91 38.2069Z" fill="#161616" stroke="#EEF0F2" stroke-linecap="round" stroke-linejoin="round"/>
<path d="M117.787 38.2072L76.4299 14.3296C73.3472 12.5503 68.3672 12.5503 65.3049 14.3296L24.215 38.2084C22.694 39.0924 21.9324 40.2484 21.929 41.4078L21.8916 54.5491C21.895 53.3908 22.6566 52.2337 24.1776 51.3496L65.2675 27.4709C68.3298 25.6916 73.3098 25.6916 76.3925 27.4709L117.75 51.3485C119.301 52.2439 120.076 53.4192 120.072 54.5933L120.11 41.452C120.113 40.279 119.338 39.1037 117.787 38.2072Z" fill="#161616" stroke="#EEF0F2" stroke-linecap="round" stroke-linejoin="round"/>
<path d="M13.0905 38.2079L1.16533 31.3228L1.12793 44.464L13.0531 51.3492C14.6036 52.2445 15.3788 53.4198 15.3754 54.5929L15.4128 41.4516C15.4162 40.2785 14.6421 39.1033 13.0905 38.2079Z" fill="#161616" stroke="#EEF0F2" stroke-linecap="round" stroke-linejoin="round"/>
<path d="M88.4675 41.431L71.0762 51.5372L53.5703 41.431L70.9617 31.3237L88.4675 41.431Z" fill="#161616" stroke="#EEF0F2" stroke-linecap="round" stroke-linejoin="round"/>
<path d="M71.0764 51.5378L71.0391 64.6791L53.5332 54.5729L53.5706 41.4316L71.0764 51.5378Z" fill="#161616" stroke="#EEF0F2" stroke-linecap="round" stroke-linejoin="round"/>
<path d="M88.4678 41.4316L88.4304 54.5729L71.0391 64.6791L71.0765 51.5378L88.4678 41.4316Z" fill="#161616" stroke="#EEF0F2" stroke-linecap="round" stroke-linejoin="round"/>
<path d="M140.872 51.5356L140.835 64.6769L88.6572 94.9988L88.6935 81.8575L140.872 51.5356Z" fill="#161616" stroke="#EEF0F2" stroke-linecap="round" stroke-linejoin="round"/>
<path d="M128.947 44.6501L140.872 51.5353L88.6943 81.8583L76.7691 74.9731C73.6875 73.1938 68.7075 73.1938 65.6463 74.9731L53.7982 81.8583L1.27837 51.5364L13.1265 44.6513C16.1877 42.8719 16.1718 39.9875 13.0902 38.2081L1.16504 31.323L53.3426 1L65.2677 7.88515C68.3493 9.66452 73.3293 9.66452 76.3905 7.88515L88.2386 1L140.757 31.3218L128.909 38.207C125.848 39.9864 125.864 42.8708 128.945 44.6501H128.947ZM76.7328 68.53L117.823 44.6513C120.885 42.8719 120.869 39.9875 117.786 38.207L76.4291 14.3294C73.3463 12.55 68.3663 12.55 65.304 14.3294L24.2141 38.2081C21.1518 39.9875 21.1688 42.8719 24.2515 44.6513L65.6089 68.5289C68.6916 70.3082 73.6716 70.3082 76.7328 68.5289" fill="#161616"/>
<path d="M76.7328 68.53L117.823 44.6513C120.885 42.8719 120.869 39.9875 117.786 38.207L76.4291 14.3294C73.3463 12.55 68.3663 12.55 65.304 14.3294L24.2141 38.2081C21.1518 39.9875 21.1688 42.8719 24.2515 44.6513L65.6089 68.5289C68.6916 70.3082 73.6716 70.3082 76.7328 68.5289M128.947 44.6501L140.872 51.5353L88.6942 81.8583L76.7691 74.9731C73.6875 73.1938 68.7075 73.1938 65.6463 74.9731L53.7982 81.8583L1.27837 51.5364L13.1265 44.6513C16.1877 42.8719 16.1718 39.9875 13.0902 38.2081L1.16504 31.323L53.3426 1L65.2677 7.88515C68.3493 9.66452 73.3293 9.66452 76.3905 7.88515L88.2386 1L140.757 31.3219L128.909 38.207C125.848 39.9864 125.864 42.8708 128.945 44.6501H128.947Z" stroke="#EEF0F2" stroke-linecap="round" stroke-linejoin="round"/>
<path d="M53.7973 81.8585L53.7599 94.9998L1.24121 64.6779L1.27861 51.5366L53.7973 81.8585Z" fill="#161616" stroke="#EEF0F2" stroke-linecap="round" stroke-linejoin="round"/>
<path d="M76.77 74.9727C73.6884 73.1933 68.7084 73.1933 65.6472 74.9727L53.7991 81.8579L53.7617 94.9991L65.6098 88.114C68.671 86.3346 73.651 86.3346 76.7326 88.114L88.6578 94.9991L88.6952 81.8579L76.77 74.9727Z" fill="#161616" stroke="#EEF0F2" stroke-linecap="round" stroke-linejoin="round"/>
</svg>
