<svg width="957" height="957" viewBox="0 0 957 957" fill="none" xmlns="http://www.w3.org/2000/svg">
<g filter="url(#filter0_d_10_63)">
<path d="M758.896 17.9044H198.104C99.6872 17.9044 19.9044 97.6873 19.9044 196.104V756.896C19.9044 855.313 99.6872 935.096 198.104 935.096H758.896C857.313 935.096 937.096 855.313 937.096 756.896V196.104C937.096 97.6873 857.313 17.9044 758.896 17.9044Z" fill="url(#paint0_linear_10_63)" stroke="black" stroke-opacity="0.238199" stroke-width="2.19126"/>
<g opacity="0.266044">
<path d="M623.827 184.156H303.385C282.288 184.156 265.185 201.258 265.185 222.355C265.185 243.452 282.288 260.554 303.385 260.554H623.827C644.924 260.554 662.027 243.452 662.027 222.355C662.027 201.258 644.924 184.156 623.827 184.156Z" fill="white"/>
<path d="M781.477 287.84H461.034C439.937 287.84 422.835 304.942 422.835 326.039C422.835 347.136 439.937 364.239 461.034 364.239H781.477C802.574 364.239 819.676 347.136 819.676 326.039C819.676 304.942 802.574 287.84 781.477 287.84Z" fill="white"/>
<path d="M689.061 391.524H368.619C347.522 391.524 330.42 408.627 330.42 429.724C330.42 450.82 347.522 467.923 368.619 467.923H689.061C710.158 467.923 727.261 450.82 727.261 429.724C727.261 408.627 710.158 391.524 689.061 391.524Z" fill="white"/>
<path d="M574.902 500.665H254.459C233.362 500.665 216.26 517.768 216.26 538.865C216.26 559.962 233.362 577.064 254.459 577.064H574.902C595.999 577.064 613.101 559.962 613.101 538.865C613.101 517.768 595.999 500.665 574.902 500.665Z" fill="white"/>
<path d="M689.061 604.35H368.619C347.522 604.35 330.42 621.452 330.42 642.549C330.42 663.646 347.522 680.749 368.619 680.749H689.061C710.158 680.749 727.261 663.646 727.261 642.549C727.261 621.452 710.158 604.35 689.061 604.35Z" fill="white"/>
<path d="M803.221 708.034H618.683C597.586 708.034 580.484 725.136 580.484 746.233C580.484 767.33 597.586 784.433 618.683 784.433H803.221C824.318 784.433 841.421 767.33 841.421 746.233C841.421 725.136 824.318 708.034 803.221 708.034Z" fill="white"/>
</g>
<g opacity="0.845099">
<path d="M503.351 183.964H182.909C161.812 183.964 144.709 201.066 144.709 222.163C144.709 243.26 161.812 260.363 182.909 260.363H503.351C524.448 260.363 541.551 243.26 541.551 222.163C541.551 201.066 524.448 183.964 503.351 183.964Z" fill="white"/>
<path d="M661.001 287.648H340.558C319.461 287.648 302.359 304.751 302.359 325.848C302.359 346.945 319.461 364.047 340.558 364.047H661.001C682.098 364.047 699.2 346.945 699.2 325.848C699.2 304.751 682.098 287.648 661.001 287.648Z" fill="white"/>
<path d="M568.585 391.333H248.143C227.046 391.333 209.944 408.435 209.944 429.532C209.944 450.629 227.046 467.731 248.143 467.731H568.585C589.682 467.731 606.785 450.629 606.785 429.532C606.785 408.435 589.682 391.333 568.585 391.333Z" fill="white"/>
<path d="M454.426 500.474H133.983C112.886 500.474 95.7837 517.576 95.7837 538.673C95.7837 559.77 112.886 576.873 133.983 576.873H454.426C475.523 576.873 492.625 559.77 492.625 538.673C492.625 517.576 475.523 500.474 454.426 500.474Z" fill="white"/>
<path d="M568.585 604.158H248.143C227.046 604.158 209.944 621.261 209.944 642.358C209.944 663.455 227.046 680.557 248.143 680.557H568.585C589.682 680.557 606.785 663.455 606.785 642.358C606.785 621.261 589.682 604.158 568.585 604.158Z" fill="white"/>
<path d="M682.745 707.842H498.207C477.11 707.842 460.008 724.945 460.008 746.042C460.008 767.139 477.11 784.241 498.207 784.241H682.745C703.842 784.241 720.945 767.139 720.945 746.042C720.945 724.945 703.842 707.842 682.745 707.842Z" fill="white"/>
</g>
</g>
<defs>
<filter id="filter0_d_10_63" x="0.808716" y="0.808838" width="955.383" height="955.382" filterUnits="userSpaceOnUse" color-interpolation-filters="sRGB">
<feFlood flood-opacity="0" result="BackgroundImageFix"/>
<feColorMatrix in="SourceAlpha" type="matrix" values="0 0 0 0 0 0 0 0 0 0 0 0 0 0 0 0 0 0 127 0" result="hardAlpha"/>
<feOffset dy="2"/>
<feGaussianBlur stdDeviation="9"/>
<feColorMatrix type="matrix" values="0 0 0 0 0 0 0 0 0 0 0 0 0 0 0 0 0 0 0.837139 0"/>
<feBlend mode="normal" in2="BackgroundImageFix" result="effect1_dropShadow_10_63"/>
<feBlend mode="normal" in="SourceGraphic" in2="effect1_dropShadow_10_63" result="shape"/>
</filter>
<linearGradient id="paint0_linear_10_63" x1="3028.7" y1="17.9032" x2="85226.9" y2="84782" gradientUnits="userSpaceOnUse">
<stop stop-color="#614BD3"/>
<stop offset="1" stop-color="#4F13BE"/>
</linearGradient>
</defs>
</svg>
