<svg width="250" height="165" viewBox="0 0 250 165" fill="none" xmlns="http://www.w3.org/2000/svg">
<path d="M26.023 70.902C26.023 70.902 48.527 37.699 93.46 34.264V22.218C43.691 26.215 0.593018 68.367 0.593018 68.367C0.593018 68.367 25.003 138.932 93.46 145.393V132.589C43.223 126.269 26.023 70.902 26.023 70.902ZM93.46 107.125V118.851C55.492 112.082 44.953 72.614 44.953 72.614C44.953 72.614 63.183 52.419 93.46 49.144V62.011C93.437 62.011 93.421 62.004 93.402 62.004C77.511 60.097 65.097 74.942 65.097 74.942C65.097 74.942 72.055 99.933 93.46 107.125ZM93.46 0V22.218C94.921 22.106 96.382 22.011 97.851 21.961C154.433 20.054 191.3 68.367 191.3 68.367C191.3 68.367 148.957 119.855 104.843 119.855C100.8 119.855 97.015 119.48 93.46 118.85V132.589C96.5 132.975 99.652 133.202 102.941 133.202C143.992 133.202 173.679 112.237 202.425 87.424C207.191 91.241 226.703 100.527 230.714 104.592C203.382 127.475 139.683 145.921 103.57 145.921C100.089 145.921 96.746 145.71 93.46 145.393V164.699H249.492V0H93.46ZM93.46 49.144V34.264C94.906 34.163 96.363 34.086 97.851 34.039C138.539 32.761 165.233 69.004 165.233 69.004C165.233 69.004 136.401 109.047 105.487 109.047C101.038 109.047 97.05 108.332 93.46 107.125V62.011C109.3 63.925 112.487 70.922 122.01 86.797L143.19 68.938C143.19 68.938 127.729 48.661 101.666 48.661C98.833 48.66 96.122 48.859 93.46 49.144Z" fill="#77B900"/>
</svg>
