<svg width="400" height="400" viewBox="0 0 400 400" fill="none" xmlns="http://www.w3.org/2000/svg">
<path fill-rule="evenodd" clip-rule="evenodd" d="M197.861 75C200.339 75 202.744 76.3108 204.056 78.4955L218.485 103.255H282.47C284.948 103.255 287.353 104.566 288.665 106.751L306.811 137.773C308.123 139.958 308.123 142.725 306.811 144.91L306.447 145.492C306.155 145.929 305.791 146.366 305.353 146.73L290.997 171.344L322.771 225.961L323.572 227.126C324.52 229.311 324.738 232.078 324.083 234.045L307.394 262.591C306.082 264.776 303.75 266.087 301.199 266.087L272.268 266.232L240.348 321.359C239.036 323.544 236.704 324.854 234.153 324.854L198.007 325H197.497C195.165 324.854 192.906 323.544 191.74 321.505L176.217 294.924H113.033C112.523 295.07 112.086 295.07 111.576 295.07C109.098 295.07 106.693 293.759 105.381 291.574L88.6927 263.028C87.381 260.916 87.381 258.222 88.6927 255.964L103.049 231.059L70.9838 176.005C69.6721 173.893 69.6721 171.199 70.9838 168.941L88.8385 137.773C90.0045 135.588 92.4094 134.278 95.0329 134.278C95.6888 134.132 96.199 134.278 96.7091 134.423H126.297L157.925 79.8063C158.071 79.3694 158.144 79.0052 158.362 78.714L158.508 78.4955C159.82 76.3108 162.152 75 164.703 75H197.934H197.861ZM164.192 82.5736L129.868 141.778H94.7414L163.099 259.241H128.264L111.43 288.297H180.007L197.497 318.446L265.855 200.692L283.345 230.695L317.086 230.549L282.689 171.344L300.033 141.487L163.755 141.633L181.245 111.63L164.265 82.5736H164.192ZM238.162 177.389L197.278 247.662L156.395 177.389H238.162Z" fill="currentColor"/>
</svg>
