<svg xmlns="http://www.w3.org/2000/svg" width="28" height="20" viewBox="0 0 33 33" fill="none" class="ml-5 flex h-14 items-center pt-2"><rect width="31" height="31" x="1" y="1" fill="url(#a)" rx="12"></rect><rect width="31" height="31" x="1" y="1" stroke="url(#b)" stroke-width="2" rx="11"></rect><g clip-path="url(#c)"><path fill-rule="evenodd" d="M18.12 9.746a.532.532 0 0 1 .255.604l-1.413 5.18h5.154a.532.532 0 0 1 .389.895l-7.447 7.979a.531.531 0 0 1-.902-.504l1.413-5.179h-5.155a.532.532 0 0 1-.388-.895l7.446-7.978a.532.532 0 0 1 .648-.102Z" clip-rule="evenodd" fill="#ffffff" style="transform: none; transform-origin: 16.2655px 17.1273px;" transform-origin="16.265499114990234px 17.127326011657715px"></path></g><path fill="url(#d)" d="M149.675 17.555c0 .895-.161 1.709-.484 2.442a5.578 5.578 0 0 1-1.32 1.848 6.137 6.137 0 0 1-1.936 1.166 6.569 6.569 0 0 1-2.354.418c-.821 0-1.606-.14-2.354-.418a6.16 6.16 0 0 1-1.936-1.166 5.773 5.773 0 0 1-1.298-1.848c-.322-.733-.484-1.547-.484-2.442 0-.895.162-1.701.484-2.42a5.524 5.524 0 0 1 1.298-1.826 5.845 5.845 0 0 1 1.936-1.144 7.022 7.022 0 0 1 2.354-.396c.836 0 1.621.132 2.354.396a5.825 5.825 0 0 1 1.936 1.144 5.345 5.345 0 0 1 1.32 1.826c.323.719.484 1.525.484 2.42Zm-3.476 0a3.11 3.11 0 0 0-.176-1.034 2.604 2.604 0 0 0-.506-.88 2.496 2.496 0 0 0-.814-.638 2.474 2.474 0 0 0-1.122-.242c-.425 0-.799.08-1.122.242a2.507 2.507 0 0 0-.814.638c-.205.25-.366.543-.484.88a3.554 3.554 0 0 0 0 2.068c.118.337.286.645.506.924.22.264.492.477.814.638a2.48 2.48 0 0 0 1.122.242c.426 0 .8-.08 1.122-.242.323-.161.594-.374.814-.638.22-.279.382-.587.484-.924a3.11 3.11 0 0 0 .176-1.034Z"></path><path fill="url(#e)" d="M135.465 8.623c0 .279-.058.543-.176.792-.102.235-.249.44-.44.616a1.885 1.885 0 0 1-.66.418 2.057 2.057 0 0 1-.792.154c-.586 0-1.078-.19-1.474-.572a1.924 1.924 0 0 1-.594-1.408c0-.264.052-.513.154-.748.103-.25.25-.462.44-.638.191-.176.411-.315.66-.418a1.89 1.89 0 0 1 .814-.176c.279 0 .543.051.792.154.264.103.484.242.66.418.191.176.338.389.44.638.118.235.176.491.176.77Zm-3.872 14.454V12.121h3.608v10.956h-3.608Z"></path><path fill="url(#f)" d="M127.619 15.355a4.03 4.03 0 0 0-1.034-.704 2.854 2.854 0 0 0-1.254-.286c-.338 0-.653.066-.946.198-.279.132-.418.36-.418.682 0 .308.154.528.462.66.322.132.836.279 1.54.44.41.088.821.213 1.232.374.425.161.806.374 1.144.638.337.264.608.587.814.968.205.381.308.836.308 1.364 0 .69-.14 1.276-.418 1.76a3.43 3.43 0 0 1-1.1 1.144c-.44.293-.939.506-1.496.638a7.24 7.24 0 0 1-1.672.198c-.895 0-1.775-.14-2.64-.418-.851-.293-1.562-.719-2.134-1.276l2.024-2.134c.322.352.718.645 1.188.88.469.235.968.352 1.496.352.293 0 .579-.066.858-.198.293-.147.44-.396.44-.748 0-.337-.176-.587-.528-.748-.352-.161-.902-.33-1.65-.506a8.477 8.477 0 0 1-1.144-.352 3.79 3.79 0 0 1-1.034-.594 3.01 3.01 0 0 1-.726-.924c-.191-.367-.286-.807-.286-1.32 0-.66.139-1.217.418-1.672.278-.47.638-.85 1.078-1.144.44-.293.924-.506 1.452-.638a6.132 6.132 0 0 1 1.606-.22c.821 0 1.62.132 2.398.396.792.25 1.459.63 2.002 1.144l-1.98 2.046Z"></path><path fill="url(#g)" d="M118.888 17.555c0 .895-.161 1.709-.484 2.442a5.607 5.607 0 0 1-1.32 1.848 6.148 6.148 0 0 1-1.936 1.166 6.569 6.569 0 0 1-2.354.418c-.821 0-1.606-.14-2.354-.418a6.148 6.148 0 0 1-1.936-1.166 5.758 5.758 0 0 1-1.298-1.848c-.323-.733-.484-1.547-.484-2.442 0-.895.161-1.701.484-2.42a5.51 5.51 0 0 1 1.298-1.826 5.835 5.835 0 0 1 1.936-1.144 7.022 7.022 0 0 1 2.354-.396c.836 0 1.621.132 2.354.396a5.835 5.835 0 0 1 1.936 1.144 5.371 5.371 0 0 1 1.32 1.826c.323.719.484 1.525.484 2.42Zm-3.476 0c0-.352-.059-.697-.176-1.034a2.604 2.604 0 0 0-.506-.88 2.496 2.496 0 0 0-.814-.638 2.48 2.48 0 0 0-1.122-.242c-.425 0-.799.08-1.122.242a2.496 2.496 0 0 0-.814.638c-.205.25-.367.543-.484.88a3.52 3.52 0 0 0 0 2.068c.117.337.286.645.506.924.22.264.491.477.814.638a2.48 2.48 0 0 0 1.122.242c.425 0 .799-.08 1.122-.242.323-.161.594-.374.814-.638.22-.279.381-.587.484-.924.117-.337.176-.682.176-1.034Z"></path><path fill="url(#h)" d="M105.001 17.555c0 .763-.117 1.496-.352 2.2a5.656 5.656 0 0 1-1.034 1.87c-.44.528-.982.953-1.628 1.276-.645.323-1.378.484-2.2.484a4.709 4.709 0 0 1-1.914-.396c-.601-.279-1.07-.653-1.408-1.122h-.044v6.49h-3.608V12.121h3.432v1.342h.066c.337-.44.8-.821 1.386-1.144.602-.337 1.305-.506 2.112-.506.792 0 1.511.154 2.156.462a4.748 4.748 0 0 1 1.628 1.254c.455.528.8 1.144 1.034 1.848.25.69.374 1.415.374 2.178Zm-3.498 0a3.11 3.11 0 0 0-.176-1.034 2.334 2.334 0 0 0-.484-.88 2.268 2.268 0 0 0-.792-.638 2.477 2.477 0 0 0-1.122-.242c-.41 0-.777.08-1.1.242a2.756 2.756 0 0 0-.836.638c-.22.264-.396.565-.528.902a3.125 3.125 0 0 0 0 2.068c.132.337.308.638.528.902.235.264.514.477.836.638.323.161.69.242 1.1.242.425 0 .8-.08 1.122-.242.323-.161.587-.374.792-.638.22-.264.382-.565.484-.902.118-.352.176-.704.176-1.056Z"></path><path fill="url(#i)" d="M86.481 23.077v-5.984a5.64 5.64 0 0 0-.066-.88 2.14 2.14 0 0 0-.242-.748 1.28 1.28 0 0 0-.484-.484c-.19-.132-.447-.198-.77-.198-.308 0-.58.066-.814.198-.22.132-.41.308-.572.528-.147.22-.257.477-.33.77-.073.279-.11.572-.11.88v5.918h-3.608v-6.248c0-.63-.125-1.13-.374-1.496-.25-.367-.645-.55-1.188-.55-.572 0-1.02.227-1.342.682-.308.455-.462 1.012-.462 1.672v5.94h-3.63V12.121h3.498v1.518h.044c.132-.235.293-.462.484-.682.205-.22.447-.41.726-.572.279-.176.587-.315.924-.418a4.073 4.073 0 0 1 1.144-.154c.792 0 1.46.161 2.002.484.557.323.99.785 1.298 1.386a4.172 4.172 0 0 1 1.408-1.364c.572-.337 1.269-.506 2.09-.506.748 0 1.371.14 1.87.418.513.264.924.616 1.232 1.056a4.1 4.1 0 0 1 .66 1.452 5.82 5.82 0 0 1 .22 1.562v6.776h-3.608Z"></path><path fill="url(#j)" d="M70.204 17.555c0 .895-.16 1.709-.483 2.442a5.595 5.595 0 0 1-1.32 1.848 6.147 6.147 0 0 1-1.936 1.166 6.57 6.57 0 0 1-2.355.418c-.82 0-1.605-.14-2.353-.418a6.15 6.15 0 0 1-1.936-1.166 5.76 5.76 0 0 1-1.298-1.848c-.323-.733-.485-1.547-.485-2.442 0-.895.162-1.701.485-2.42a5.51 5.51 0 0 1 1.297-1.826 5.836 5.836 0 0 1 1.937-1.144 7.02 7.02 0 0 1 2.354-.396c.835 0 1.62.132 2.353.396a5.834 5.834 0 0 1 1.936 1.144 5.36 5.36 0 0 1 1.32 1.826c.323.719.484 1.525.484 2.42Zm-3.475 0c0-.352-.06-.697-.177-1.034a2.609 2.609 0 0 0-.506-.88 2.5 2.5 0 0 0-.814-.638 2.478 2.478 0 0 0-1.121-.242c-.426 0-.8.08-1.123.242a2.5 2.5 0 0 0-.813.638c-.206.25-.367.543-.484.88a3.534 3.534 0 0 0 0 2.068c.117.337.285.645.505.924a2.5 2.5 0 0 0 .815.638c.322.161.696.242 1.121.242.426 0 .8-.08 1.122-.242a2.5 2.5 0 0 0 .814-.638 2.79 2.79 0 0 0 .484-.924c.118-.337.176-.682.176-1.034Z"></path><path fill="url(#k)" d="M57.432 20.921a7.535 7.535 0 0 1-2.552 1.892c-1.012.455-2.178.682-3.498.682-1.203 0-2.317-.198-3.344-.594a7.941 7.941 0 0 1-2.64-1.672 7.915 7.915 0 0 1-1.76-2.618c-.425-1.012-.638-2.127-.638-3.344 0-1.247.213-2.376.638-3.388a7.548 7.548 0 0 1 1.804-2.574 7.853 7.853 0 0 1 2.684-1.65c1.027-.381 2.134-.572 3.322-.572 1.1 0 2.178.198 3.234.594 1.07.381 1.936.946 2.596 1.694l-2.552 2.552a3.159 3.159 0 0 0-1.386-1.078 4.596 4.596 0 0 0-1.76-.352 4.42 4.42 0 0 0-1.826.374 4.155 4.155 0 0 0-1.408.99 4.536 4.536 0 0 0-.924 1.518 5.23 5.23 0 0 0-.33 1.892c0 .704.11 1.35.33 1.936.22.587.52 1.093.902 1.518.396.41.865.733 1.408.968a4.442 4.442 0 0 0 1.782.352c.748 0 1.4-.147 1.958-.44a3.797 3.797 0 0 0 1.342-1.144l2.618 2.464Z"></path><defs><linearGradient id="a" x1="16.5" x2="16.5" y1="2" y2="31" gradientUnits="userSpaceOnUse"><stop stop-color="rgba(154, 77, 255, 1)"></stop><stop offset="0.31" stop-color="rgba(128, 23, 247, 1)"></stop><stop offset="0.425" stop-color="rgba(122, 32, 225, 1)"></stop><stop offset="0.495" stop-color="rgba(122, 32, 225, 1)"></stop><stop offset="0.665" stop-color="rgba(124, 22, 248, 1)"></stop><stop offset="1" stop-color="rgba(130, 34, 255, 1)"></stop></linearGradient><linearGradient id="b" x1="16.5" x2="16.5" y1="2" y2="31" gradientUnits="userSpaceOnUse"><stop stop-opacity="0.18" stop-color="rgba(111, 0, 255, 1)"></stop><stop offset="1" stop-color="rgba(65, 0, 155, 1)"></stop></linearGradient><linearGradient id="d" x1="99.62" x2="99.62" y1="11.702" y2="26.077" gradientUnits="userSpaceOnUse"><stop offset="0.15" stop-color="#171717"></stop><stop offset="0.713" stop-color="#171717"></stop></linearGradient><linearGradient id="e" x1="99.62" x2="99.62" y1="11.702" y2="26.077" gradientUnits="userSpaceOnUse"><stop offset="0.15" stop-color="#171717"></stop><stop offset="0.713" stop-color="#171717"></stop></linearGradient><linearGradient id="f" x1="99.62" x2="99.62" y1="11.702" y2="26.077" gradientUnits="userSpaceOnUse"><stop offset="0.15" stop-color="#171717"></stop><stop offset="0.713" stop-color="#171717"></stop></linearGradient><linearGradient id="g" x1="99.62" x2="99.62" y1="11.702" y2="26.077" gradientUnits="userSpaceOnUse"><stop offset="0.15" stop-color="#171717"></stop><stop offset="0.713" stop-color="#171717"></stop></linearGradient><linearGradient id="h" x1="99.62" x2="99.62" y1="11.702" y2="26.077" gradientUnits="userSpaceOnUse"><stop offset="0.15" stop-color="#171717"></stop><stop offset="0.713" stop-color="#171717"></stop></linearGradient><linearGradient id="i" x1="99.62" x2="9.62" y1="11.702" y2="26.077" gradientUnits="userSpaceOnUse"><stop offset="0.15" stop-color="#171717"></stop><stop offset="0.713" stop-color="#171717"></stop></linearGradient><linearGradient id="j" x1="99.62" x2="99.62" y1="11.702" y2="26.077" gradientUnits="userSpaceOnUse"><stop offset="0.15" stop-color="#171717"></stop><stop offset="0.713" stop-color="#171717"></stop></linearGradient><linearGradient id="k" x1="99.62" x2="99.62" y1="11.702" y2="26.077" gradientUnits="userSpaceOnUse"><stop offset="0.15" stop-color="#171717"></stop><stop offset="0.713" stop-color="#171717"></stop></linearGradient></defs></svg>
