<svg width="677" height="615" viewBox="0 0 677 615" fill="none" xmlns="http://www.w3.org/2000/svg">
<path d="M553.164 0H676.088V122.924H553.164V0Z" fill="#F7D046"/>
<path d="M0 0H122.924V122.924H0V0ZM0 122.924H122.924V245.848H0V122.924ZM0 245.848H122.924V368.776H0V245.848ZM0 368.776H122.924V491.7H0V368.776Z" fill="black"/>
<path d="M0 491.7H122.924V614.624H0V491.7Z" fill="black"/>
<path d="M61.4639 0H184.388V122.924H61.4639V0Z" fill="#F7D046"/>
<path d="M553.164 122.924H676.088V245.848H553.164V122.924ZM61.4639 122.924H184.388V245.848H61.4639V122.924Z" fill="#F2A73B"/>
<path d="M368.776 122.924H491.7V245.848H368.776V122.924Z" fill="black"/>
<path d="M430.24 122.924H553.164V245.848H430.24V122.924ZM184.388 122.924H307.312V245.848H184.388V122.924Z" fill="#F2A73B"/>
<path d="M307.312 245.852H430.236V368.776H307.312V245.852ZM430.236 245.852H553.164V368.776H430.236V245.852ZM184.388 245.852H307.312V368.776H184.388V245.852Z" fill="#EE792F"/>
<path d="M245.852 368.776H368.776V491.7H245.852V368.776Z" fill="black"/>
<path d="M307.312 368.776H430.236V491.7H307.312V368.776Z" fill="#EB5829"/>
<path d="M553.164 245.852H676.088V368.776H553.164V245.852ZM61.4639 245.852H184.388V368.776H61.4639V245.852Z" fill="#EE792F"/>
<path d="M491.7 368.776H614.624V491.7H491.7V368.776Z" fill="black"/>
<path d="M553.164 368.776H676.088V491.7H553.164V368.776Z" fill="#EB5829"/>
<path d="M491.7 491.7H614.624V614.624H491.7V491.7Z" fill="black"/>
<path d="M61.4639 368.776H184.388V491.7H61.4639V368.776Z" fill="#EB5829"/>
<path d="M553.164 491.7H676.088V614.624H553.164V491.7ZM61.4639 491.7H184.388V614.624H61.4639V491.7Z" fill="#EA3326"/>
</svg>
