<svg width="20" height="20" viewBox="0 0 20 20" fill="none" xmlns="http://www.w3.org/2000/svg">
<path d="M8.0768 17.9163L7.75951 15.3778C7.53631 15.3031 7.30742 15.1984 7.07284 15.0638C6.83839 14.9291 6.62874 14.7849 6.44388 14.6311L4.09284 15.6247L2.16992 12.2913L4.20346 10.7545C4.1843 10.6306 4.17069 10.5061 4.16263 10.3811C4.15457 10.2561 4.15055 10.1316 4.15055 10.0076C4.15055 9.88912 4.15457 9.7687 4.16263 9.64634C4.17069 9.52398 4.1843 9.39016 4.20346 9.24488L2.16992 7.70801L4.09284 4.39072L6.43576 5.37634C6.63673 5.21717 6.85124 5.07162 7.0793 4.93967C7.30735 4.80773 7.53145 4.70169 7.75159 4.62155L8.0768 2.08301H11.923L12.2403 4.62947C12.4903 4.7203 12.7165 4.82634 12.9189 4.94759C13.1214 5.06884 13.3258 5.21176 13.532 5.37634L15.907 4.39072L17.8299 7.70801L15.7643 9.26884C15.7942 9.40342 15.8105 9.52926 15.8133 9.64634C15.8159 9.76329 15.8172 9.88106 15.8172 9.99967C15.8172 10.1129 15.8145 10.228 15.8091 10.3451C15.8038 10.462 15.7846 10.5959 15.7516 10.7465L17.8012 12.2913L15.878 15.6247L13.532 14.623C13.3258 14.7876 13.1153 14.9331 12.9005 15.0597C12.6858 15.1863 12.4658 15.2897 12.2403 15.3699L11.923 17.9163H8.0768ZM9.16659 16.6663H10.8045L11.1041 14.434C11.5294 14.3229 11.918 14.1651 12.2699 13.9605C12.622 13.7558 12.9615 13.4927 13.2885 13.1711L15.3589 14.0413L16.1795 12.6247L14.3718 11.2626C14.4412 11.0468 14.4885 10.8352 14.5135 10.6278C14.5386 10.4206 14.5512 10.2112 14.5512 9.99967C14.5512 9.78273 14.5386 9.57335 14.5135 9.37155C14.4885 9.1696 14.4412 8.96336 14.3718 8.7528L16.1953 7.37467L15.3749 5.95801L13.2803 6.84092C13.0015 6.54287 12.6674 6.27954 12.278 6.05093C11.8886 5.82231 11.4946 5.66044 11.0962 5.5653L10.8333 3.33301H9.17951L8.90367 5.55738C8.47853 5.6578 8.08596 5.81162 7.72596 6.01884C7.36583 6.2262 7.02228 6.49329 6.69534 6.82009L4.62492 5.95801L3.80451 7.37467L5.60409 8.71592C5.53464 8.9137 5.48603 9.1194 5.45826 9.33301C5.43048 9.54662 5.41659 9.77148 5.41659 10.0076C5.41659 10.2245 5.43048 10.4372 5.45826 10.6455C5.48603 10.8538 5.53201 11.0595 5.59617 11.2626L3.80451 12.6247L4.62492 14.0413L6.68742 13.1663C7.00367 13.4911 7.3418 13.7571 7.7018 13.9645C8.06194 14.1717 8.45992 14.3309 8.89576 14.442L9.16659 16.6663ZM10.0095 12.4997C10.7028 12.4997 11.2928 12.2563 11.7795 11.7697C12.2662 11.283 12.5095 10.693 12.5095 9.99967C12.5095 9.30634 12.2662 8.71634 11.7795 8.22967C11.2928 7.74301 10.7028 7.49967 10.0095 7.49967C9.30756 7.49967 8.71541 7.74301 8.23305 8.22967C7.75069 8.71634 7.50951 9.30634 7.50951 9.99967C7.50951 10.693 7.75069 11.283 8.23305 11.7697C8.71541 12.2563 9.30756 12.4997 10.0095 12.4997Z" fill="currentColor"/>
</svg>
