<svg width="21" height="19" viewBox="0 0 21 19" fill="none" xmlns="http://www.w3.org/2000/svg">
  <path d="M9 6.025C10.4833 6.025 11.975 5.80417 13.475 5.3625C14.975 4.92083 15.8167 4.475 16 4.025C15.8167 3.54167 14.9792 3.08333 13.4875 2.65C11.9958 2.21667 10.5 2 9 2C7.48333 2 5.99583 2.2125 4.5375 2.6375C3.07917 3.0625 2.23333 3.525 2 4.025C2.23333 4.475 3.07917 4.92083 4.5375 5.3625C5.99583 5.80417 7.48333 6.025 9 6.025ZM7 16C7.05 16.3667 7.125 16.7167 7.225 17.05C7.325 17.3833 7.45 17.7083 7.6 18.025C6.38333 18.0083 6.325 17.8667 5.275 17.65C4.225 17.4333 3.30833 17.1458 2.525 16.7875C1.74167 16.4292 1.125 16.0125 0.675 15.5375C0.225 15.0625 0 14.55 0 14V4C0 2.9 0.879167 1.95833 2.6375 1.175C4.39583 0.391667 6.51667 0 9 0C11.4833 0 13.6042 0.391667 15.3625 1.175C17.1208 1.95833 18 2.9 18 4V8.675C17.6833 8.525 17.3583 8.4 17.025 8.3C16.6917 8.2 16.35 8.125 16 8.075V6.525C15.1333 7.00833 14.1 7.375 12.9 7.625C11.7 7.875 10.4 8 9 8C7.58333 8 6.275 7.875 5.075 7.625C3.875 7.375 2.85 7.00833 2 6.525V9.05C2.85 9.83333 3.9375 10.3542 5.2625 10.6125C6.5875 10.8708 6.05833 10.7876 7.225 10.7876L9.5 10.5C9.28333 10.8 8.15833 11.1667 8 11.5C7.84167 11.8333 7.11667 12.4708 7 12.8375C5.73333 12.7708 5.85833 12.7792 4.775 12.5375C3.69167 12.2958 2.76667 11.9583 2 11.525V14C2.11667 14.2167 2.36667 14.4375 2.75 14.6625C3.13333 14.8875 3.6 15.0875 4.15 15.2625C4.7 15.4375 5.3125 15.5875 5.9875 15.7125C6.6625 15.8375 6.28333 15.95 7 16Z" fill="currentColor"/>
  <path d="M13.5 19C11.9833 19 10.5833 18.6 9.3 17.8C8.01667 17 7.08333 15.9 6.5 14.5C7.08333 13.1 8.01667 12 9.3 11.2C10.5833 10.4 11.9833 10 13.5 10C15.0167 10 16.4167 10.4 17.7 11.2C18.9833 12 19.9167 13.1 20.5 14.5C19.9167 15.9 18.9833 17 17.7 17.8C16.4167 18.6 15.0167 19 13.5 19ZM13.5 17C14.45 17 15.3458 16.7833 16.1875 16.35C17.0292 15.9167 17.7167 15.3 18.25 14.5C17.7167 13.7 17.0292 13.0833 16.1875 12.65C15.3458 12.2167 14.45 12 13.5 12C12.55 12 11.6542 12.2167 10.8125 12.65C9.97083 13.0833 9.28333 13.7 8.75 14.5C9.28333 15.3 9.97083 15.9167 10.8125 16.35C11.6542 16.7833 12.55 17 13.5 17ZM13.5 16C13.0833 16 12.7292 15.8542 12.4375 15.5625C12.1458 15.2708 12 14.9167 12 14.5C12 14.0833 12.1458 13.7292 12.4375 13.4375C12.7292 13.1458 13.0833 13 13.5 13C13.9167 13 14.2708 13.1458 14.5625 13.4375C14.8542 13.7292 15 14.0833 15 14.5C15 14.9167 14.8542 15.2708 14.5625 15.5625C14.2708 15.8542 13.9167 16 13.5 16Z" fill="currentColor"/>
</svg>
