<svg width="20" height="20" viewBox="0 0 20 20" fill="none" xmlns="http://www.w3.org/2000/svg">
<path d="M5.83333 11.3464C5.46042 11.3464 5.14285 11.2153 4.88062 10.953C4.6184 10.6908 4.48729 10.3732 4.48729 10.0003C4.48729 9.62741 4.6184 9.30984 4.88062 9.04762C5.14285 8.7854 5.46042 8.65428 5.83333 8.65428C6.20625 8.65428 6.52382 8.7854 6.78604 9.04762C7.04826 9.30984 7.17937 9.62741 7.17937 10.0003C7.17937 10.3732 7.04826 10.6908 6.78604 10.953C6.52382 11.2153 6.20625 11.3464 5.83333 11.3464ZM5.83333 14.5837C4.56194 14.5837 3.48021 14.1376 2.58813 13.2455C1.69604 12.3534 1.25 11.2717 1.25 10.0003C1.25 8.72894 1.69604 7.6472 2.58813 6.75512C3.48021 5.86303 4.56194 5.41699 5.83333 5.41699C6.72653 5.41699 7.53424 5.64748 8.25646 6.10845C8.97868 6.56956 9.52993 7.17241 9.91021 7.91699H17.4119L19.4952 10.0003L16.29 13.1893L14.7435 12.0276L13.1571 13.2053L11.5304 12.0837H9.91021C9.52993 12.823 8.97868 13.4244 8.25646 13.888C7.53424 14.3518 6.72653 14.5837 5.83333 14.5837ZM5.83333 13.3337C6.6325 13.3337 7.32451 13.0922 7.90937 12.6093C8.49437 12.1264 8.87611 11.5345 9.05458 10.8337H11.9231L13.1233 11.6639L14.7517 10.473L16.1667 11.5549L17.7213 10.0003L16.8879 9.16699H9.05458C8.87611 8.46616 8.49437 7.87428 7.90937 7.39137C7.32451 6.90845 6.6325 6.66699 5.83333 6.66699C4.91667 6.66699 4.13194 6.99338 3.47917 7.64616C2.82639 8.29894 2.5 9.08366 2.5 10.0003C2.5 10.917 2.82639 11.7017 3.47917 12.3545C4.13194 13.0073 4.91667 13.3337 5.83333 13.3337Z" fill="currentColor"/>
</svg>
