<svg width="20" height="20" viewBox="0 0 20 20" fill="none" xmlns="http://www.w3.org/2000/svg">
  <path d="M12.4773 6.84718H7.51186C7.14201 6.84718 6.84186 7.14733 6.84186 7.51718V12.4826C6.84186 12.8525 7.14201 13.1526 7.51186 13.1526H12.4773C12.8471 13.1526 13.1473 12.8525 13.1473 12.4826V7.51718C13.1473 7.14733 12.8471 6.84718 12.4773 6.84718ZM11.0457 11.0504H8.94404V8.94881H11.0457V11.0504Z" fill="currentColor"/>
  <path d="M12.1563 1.96555H7.85076L4.12247 4.11833L1.9697 7.84662V12.1522L4.12247 15.8805L7.85076 18.0332H12.1563L15.8846 15.8805L18.0374 12.1522V7.84662L15.8846 4.11833L12.1563 1.96555ZM15.2573 13.1521H13.8257C13.4558 13.1521 13.1557 13.4523 13.1557 13.8221V15.2537H6.85081V13.8221C6.85081 13.4523 6.55066 13.1521 6.18081 13.1521H4.74919V6.84724H6.18081C6.55066 6.84724 6.85081 6.54708 6.85081 6.17723V4.74561H13.1557V6.17723C13.1557 6.54708 13.4553 6.84724 13.8257 6.84724H15.2573V13.1521Z" fill="currentColor"/>
  <path d="M17.3206 2.67944L12.6794 0H7.32056L2.67945 2.67944L0 7.32056V12.6794L2.67945 17.3206L7.32056 20H12.6794L17.3206 17.3206L20 12.6794V7.32056L17.3206 2.67944ZM18.7083 12.3338L16.3751 16.3757L12.3332 18.7089H7.66623L3.6243 16.3757L1.2911 12.3338V7.6668L3.6243 3.62487L7.66623 1.29166H12.3332L16.3751 3.62487L18.7083 7.6668V12.3338Z" fill="currentColor"/>
</svg>
