<svg width="20" height="20" viewBox="0 0 20 20" fill="none" xmlns="http://www.w3.org/2000/svg">
<path d="M3.75 17.917V7.08366H6.25V5.41699C6.25 4.37644 6.61486 3.4913 7.34458 2.76158C8.07431 2.03185 8.95944 1.66699 10 1.66699C11.0406 1.66699 11.9257 2.03185 12.6554 2.76158C13.3851 3.4913 13.75 4.37644 13.75 5.41699V7.08366H16.25V17.917H3.75ZM5 16.667H15V8.33366H5V16.667ZM10 13.9587C10.4049 13.9587 10.7492 13.8169 11.0329 13.5332C11.3165 13.2495 11.4583 12.9052 11.4583 12.5003C11.4583 12.0955 11.3165 11.7512 11.0329 11.4674C10.7492 11.1838 10.4049 11.042 10 11.042C9.59514 11.042 9.25083 11.1838 8.96708 11.4674C8.68347 11.7512 8.54167 12.0955 8.54167 12.5003C8.54167 12.9052 8.68347 13.2495 8.96708 13.5332C9.25083 13.8169 9.59514 13.9587 10 13.9587ZM7.5 7.08366H12.5V5.41699C12.5 4.72255 12.2569 4.13227 11.7708 3.64616C11.2847 3.16005 10.6944 2.91699 10 2.91699C9.30556 2.91699 8.71528 3.16005 8.22917 3.64616C7.74306 4.13227 7.5 4.72255 7.5 5.41699V7.08366Z" fill="currentColor"/>
</svg>
