<svg width="512" height="513" viewBox="0 0 512 513" fill="none" xmlns="http://www.w3.org/2000/svg">
  <rect y="0.0664062" width="512" height="512" rx="120" fill="#131313"/>
  <path fill-rule="evenodd" clip-rule="evenodd" d="M197.549 115.74C234.735 100.337 276.517 100.337 313.703 115.74C340.069 126.661 362.594 144.692 378.96 167.515C389.852 182.704 380.878 202.756 363.266 209.015L320.281 224.291C311.555 227.392 301.936 226.756 293.694 222.532C291.701 221.511 290.08 219.889 289.058 217.897L265.137 171.221C261.166 163.473 250.092 163.473 246.121 171.221L222.2 217.897C221.179 219.889 219.557 221.511 217.564 222.532L170.889 246.453C163.141 250.424 163.141 261.498 170.889 265.469L217.565 289.391C219.557 290.412 221.179 292.033 222.2 294.026L246.121 340.701C250.092 348.449 261.166 348.449 265.137 340.701L289.058 294.026C290.08 292.033 291.701 290.412 293.694 289.391C301.947 285.161 311.58 284.524 320.318 287.629L363.262 302.891C380.874 309.15 389.848 329.202 378.956 344.391C362.59 367.212 340.067 385.24 313.703 396.16C276.517 411.563 234.735 411.563 197.549 396.16C160.363 380.757 130.819 351.213 115.416 314.027C100.013 276.841 100.013 235.059 115.416 197.873C130.819 160.687 160.363 131.143 197.549 115.74ZM245.9 236.173L236.781 249.334C236.78 249.335 236.78 249.336 236.78 249.337C236.78 249.338 236.779 249.339 236.779 249.34L236.773 249.348C232.95 254.864 231.038 257.622 232.092 259.791L232.148 259.899C233.262 262.037 236.565 262.037 243.177 262.037C246.85 262.037 248.684 262.037 249.837 263.191L249.897 263.254C251.025 264.433 251.025 266.314 251.025 270.079V271.063C251.025 281.5 251.025 286.717 253.775 287.616C256.521 288.514 259.464 284.268 265.351 275.775L265.367 275.753L274.487 262.587C278.314 257.068 280.229 254.304 279.175 252.134L279.121 252.026C278.004 249.888 274.701 249.888 268.089 249.888C264.417 249.888 262.582 249.888 261.429 248.735L261.37 248.671C260.241 247.493 260.241 245.612 260.241 241.847V241.847V240.862C260.241 230.425 260.241 225.209 257.492 224.31C254.743 223.41 251.794 227.665 245.9 236.173Z" fill="white"/>
</svg>
