<svg width="12" height="16" viewBox="0 0 12 16" fill="none" xmlns="http://www.w3.org/2000/svg">
  <path d="M6 7.35106C6.85388 7.35106 7.57938 7.04769 8.1765 6.44094C8.77363 5.83419 9.07219 5.10388 9.07219 4.25V2H2.92781V4.25C2.92781 5.10388 3.22638 5.83419 3.8235 6.44094C4.42063 7.04769 5.14612 7.35106 6 7.35106ZM0.375 15.125V14H1.803V11.75C1.803 10.9057 2.034 10.1373 2.496 9.4445C2.958 8.75163 3.57025 8.27013 4.33275 8C3.57025 7.725 2.958 7.24231 2.496 6.55194C2.034 5.86156 1.803 5.09425 1.803 4.25V2H0.375V0.875H11.625V2H10.197V4.25C10.197 5.09425 9.966 5.86156 9.504 6.55194C9.042 7.24231 8.42975 7.725 7.66725 8C8.42975 8.27013 9.042 8.75163 9.504 9.4445C9.966 10.1373 10.197 10.9057 10.197 11.75V14H11.625V15.125H0.375Z" fill="currentColor"/>
</svg>
