<svg width="14" height="14" viewBox="0 0 14 14" fill="currentColor" xmlns="http://www.w3.org/2000/svg">
<path d="M4.99935 13.3337C4.39768 13.3337 3.83485 13.22 3.31085 12.9927C2.78696 12.7653 2.32885 12.4555 1.93652 12.0632C1.54418 11.6708 1.23435 11.2127 1.00702 10.6888C0.779682 10.1648 0.666016 9.60199 0.666016 9.00033C0.666016 8.15588 0.887627 7.38171 1.33085 6.67782C1.77396 5.97405 2.3669 5.44483 3.10968 5.09016C3.32335 4.64394 3.59618 4.25482 3.92818 3.92283C4.26029 3.59071 4.64729 3.31999 5.08918 3.11066C5.43018 2.37644 5.95174 1.7856 6.65385 1.33816C7.35596 0.890715 8.13779 0.666992 8.99935 0.666992C9.60102 0.666992 10.1638 0.780659 10.6878 1.00799C11.2117 1.23533 11.6698 1.54516 12.0622 1.93749C12.4545 2.32983 12.7643 2.78794 12.9917 3.31183C13.219 3.83583 13.3327 4.39866 13.3327 5.00033C13.3327 5.88488 13.1122 6.66694 12.6712 7.34649C12.2301 8.02594 11.636 8.54727 10.889 8.91049C10.6753 9.35671 10.4036 9.74477 10.0737 10.0747C9.74379 10.4045 9.35574 10.6763 8.90951 10.89C8.55485 11.6242 8.02985 12.215 7.33451 12.6625C6.63929 13.1099 5.8609 13.3337 4.99935 13.3337ZM5.01218 12.3337C5.44296 12.3337 5.86729 12.246 6.28518 12.0708C6.70318 11.8956 7.05663 11.637 7.34552 11.2952C6.68396 11.355 6.06024 11.2702 5.47435 11.0407C4.88846 10.8112 4.38013 10.4832 3.94935 10.0567C3.51857 9.62588 3.18846 9.11866 2.95902 8.53499C2.72946 7.95121 2.64463 7.32855 2.70452 6.66699C2.36685 6.9601 2.10935 7.31244 1.93202 7.72399C1.75468 8.13555 1.66602 8.56099 1.66602 9.00033C1.66602 9.46699 1.7549 9.90138 1.93268 10.3035C2.11046 10.7056 2.34935 11.0567 2.64935 11.3567C2.95357 11.6567 3.30679 11.8945 3.70902 12.0702C4.11113 12.2458 4.54552 12.3337 5.01218 12.3337ZM6.99935 10.3337C7.50279 10.3337 7.95729 10.2332 8.36285 10.0323C8.7684 9.83144 9.10279 9.58571 9.36602 9.29516C8.69768 9.35505 8.07057 9.26849 7.48468 9.03549C6.89879 8.8026 6.39046 8.47294 5.95968 8.04649C5.5289 7.61571 5.19707 7.10844 4.96418 6.52466C4.73118 5.94088 4.64463 5.31483 4.70452 4.64649C4.40107 4.92249 4.15429 5.26438 3.96418 5.67216C3.77396 6.07983 3.67885 6.52255 3.67885 7.00033C3.67885 7.46699 3.76496 7.90032 3.93718 8.30032C4.1094 8.70033 4.3489 9.05033 4.65568 9.35033C4.95568 9.66144 5.30463 9.9031 5.70252 10.0753C6.1004 10.2475 6.53268 10.3337 6.99935 10.3337ZM9.01218 8.33366C9.21218 8.33366 9.40385 8.31699 9.58718 8.28366C9.77052 8.25033 9.95663 8.20033 10.1455 8.13366C10.39 7.46699 10.4261 6.82533 10.2538 6.20866C10.0816 5.59199 9.7844 5.07255 9.36218 4.65033C8.93996 4.2281 8.42052 3.93088 7.80385 3.75866C7.18718 3.58644 6.54552 3.62255 5.87885 3.86699C5.81218 4.05588 5.76218 4.24199 5.72885 4.42533C5.69552 4.60866 5.67885 4.80033 5.67885 5.00033C5.67885 5.46699 5.76496 5.90033 5.93718 6.30032C6.1094 6.70033 6.35107 7.05033 6.66218 7.35033C6.96218 7.66144 7.31218 7.9031 7.71218 8.07533C8.11218 8.24755 8.54552 8.33366 9.01218 8.33366ZM11.307 7.35416C11.6318 7.06527 11.884 6.72449 12.0635 6.33183C12.243 5.93905 12.3327 5.49521 12.3327 5.00033C12.3327 4.53366 12.2466 4.10033 12.0743 3.70033C11.9021 3.30033 11.6605 2.95033 11.3493 2.65033C11.0493 2.33921 10.6993 2.09755 10.2993 1.92533C9.89935 1.7531 9.46601 1.66699 8.99935 1.66699C8.52068 1.66699 8.08413 1.75783 7.68968 1.93949C7.29524 2.12105 6.94718 2.37638 6.64551 2.70549C7.31385 2.6456 7.94096 2.73216 8.52685 2.96516C9.11274 3.19805 9.62107 3.52771 10.0518 3.95416C10.4826 4.38494 10.8145 4.89221 11.0473 5.47599C11.2802 6.05977 11.3668 6.68583 11.307 7.35416Z" fill="currentColor"/>
</svg>
