<svg width="12" height="12" viewBox="0 0 12 12" fill="none" xmlns="http://www.w3.org/2000/svg">
<path d="M5.29038 8.12688L8.65188 4.76537L8.125 4.2385L5.29038 7.07313L3.86538 5.64813L3.3385 6.175L5.29038 8.12688ZM6.00087 10.75C5.34387 10.75 4.72633 10.6253 4.14825 10.376C3.57017 10.1267 3.06733 9.78829 2.63975 9.36088C2.21217 8.93346 1.87362 8.43083 1.62412 7.853C1.37471 7.27517 1.25 6.65779 1.25 6.00087C1.25 5.34387 1.37467 4.72633 1.624 4.14825C1.87333 3.57017 2.21171 3.06733 2.63913 2.63975C3.06654 2.21217 3.56917 1.87362 4.147 1.62412C4.72483 1.37471 5.34221 1.25 5.99913 1.25C6.65613 1.25 7.27367 1.37467 7.85175 1.624C8.42983 1.87333 8.93267 2.21171 9.36025 2.63913C9.78783 3.06654 10.1264 3.56917 10.3759 4.147C10.6253 4.72483 10.75 5.34221 10.75 5.99913C10.75 6.65613 10.6253 7.27367 10.376 7.85175C10.1267 8.42983 9.78829 8.93267 9.36088 9.36025C8.93346 9.78783 8.43083 10.1264 7.853 10.3759C7.27517 10.6253 6.65779 10.75 6.00087 10.75Z" fill="currentColor"/>
</svg>
