<svg xmlns="http://www.w3.org/2000/svg" width="10" height="14" fill="none" viewBox="0 -2 10 20">
  <path fill="currentColor" d="M1.783 13.327a1.73 1.73 0 0 1-1.267-.52 1.715 1.715 0 0 1-.522-1.262c0-.404.121-.764.365-1.08.244-.317.551-.527.923-.63v-5.67a1.722 1.722 0 0 1-.923-.63 1.725 1.725 0 0 1-.365-1.08c0-.497.173-.919.52-1.267.348-.347.77-.521 1.267-.521.496 0 .919.174 1.267.521.348.348.522.77.522 1.267 0 .404-.12.764-.362 1.08a1.7 1.7 0 0 1-.926.63v.239c0 .582.202 1.077.606 1.485.404.407.894.611 1.471.611h1.282c.85 0 1.574.301 2.172.904.6.602.898 1.33.898 2.186v.245c.377.103.686.312.93.626.244.315.365.674.365 1.078 0 .496-.175.919-.525 1.266-.35.348-.773.522-1.269.522-.495 0-.916-.174-1.263-.522a1.727 1.727 0 0 1-.52-1.266c0-.404.121-.763.363-1.078a1.71 1.71 0 0 1 .92-.626V9.59a2.03 2.03 0 0 0-.604-1.478A1.983 1.983 0 0 0 5.64 7.5H4.359c-.412 0-.795-.078-1.149-.233a2.984 2.984 0 0 1-.928-.632v3.2c.376.103.685.312.926.626.242.315.362.674.362 1.078 0 .496-.173.919-.52 1.266-.348.348-.77.522-1.267.522Zm.002-.994a.76.76 0 0 0 .559-.226.762.762 0 0 0 .226-.562.763.763 0 0 0-.226-.562.763.763 0 0 0-.562-.227.76.76 0 0 0-.558.23.76.76 0 0 0-.23.559.76.76 0 0 0 .23.558.76.76 0 0 0 .561.23Zm6.43 0a.76.76 0 0 0 .558-.226.762.762 0 0 0 .227-.562.763.763 0 0 0-.227-.562.763.763 0 0 0-.562-.227.76.76 0 0 0-.558.23.76.76 0 0 0-.23.559.76.76 0 0 0 .23.558c.154.154.34.23.562.23Zm-6.43-9.09a.76.76 0 0 0 .559-.226.762.762 0 0 0 .226-.561.763.763 0 0 0-.226-.562.762.762 0 0 0-.562-.227.76.76 0 0 0-.558.23.76.76 0 0 0-.23.558.76.76 0 0 0 .23.558.76.76 0 0 0 .561.23Z"/>
</svg>
