<svg width="14" height="11" viewBox="0 -1 14 12" fill="currentColor" xmlns="http://www.w3.org/2000/svg">
<path d="M5.00008 10.6025L4.28725 9.90633L5.52058 8.673H5.00008C3.79408 8.673 2.77036 8.25122 1.92891 7.40767C1.08747 6.56411 0.666748 5.53933 0.666748 4.33333C0.666748 3.12733 1.08747 2.10361 1.92891 1.26217C2.77036 0.420722 3.79408 0 5.00008 0H9.00008C10.2061 0 11.2298 0.420722 12.0712 1.26217C12.9127 2.10361 13.3334 3.12733 13.3334 4.33333C13.3334 5.53933 12.9127 6.56411 12.0712 7.40767C11.2298 8.25122 10.2061 8.673 9.00008 8.673V7.673C9.92653 7.673 10.7137 7.348 11.3616 6.698C12.0095 6.048 12.3334 5.25978 12.3334 4.33333C12.3334 3.40689 12.0095 2.61972 11.3616 1.97183C10.7137 1.32394 9.92653 1 9.00008 1H5.00008C4.07364 1 3.28647 1.32394 2.63858 1.97183C1.99069 2.61972 1.66675 3.40689 1.66675 4.33333C1.66675 5.25978 1.99069 6.05144 2.63858 6.70833C3.28647 7.36522 4.07364 7.71417 5.00008 7.75517H5.61291L4.30391 6.43967L5.00008 5.74367L7.42958 8.173L5.00008 10.6025Z" fill="currentColor"/>
</svg>
