<svg width="24" height="24" viewBox="0 0 24 24" fill="none" xmlns="http://www.w3.org/2000/svg">
<path d="M2.5 21.5V2.5H12.25L17.5 7.75V12.3942H16V8.5H11.5V4H4V20H14.5193V21.5H2.5ZM19.2693 21.5L15.625 17.8462L16.6693 16.777L18.5193 18.6115V14.1058H20.0193V18.6115L21.8693 16.7865L22.9135 17.8462L19.2693 21.5Z" fill="currentColor"/>
<path fill-rule="evenodd" clip-rule="evenodd" d="M10.0986 18.6006H8.78418L8.74023 18.4609L8.42578 17.4736H6.66895L6.3584 18.46L6.31445 18.6006H5L6.7207 13.1396L6.76562 13H8.33301L10.0986 18.6006ZM7.05078 16.2607H8.03809L7.54102 14.7031L7.05078 16.2607Z" fill="currentColor"/>
<path fill-rule="evenodd" clip-rule="evenodd" d="M14.8105 14.2705H12.5498V15.167H14.377V16.4336H12.5498V18.6006H11.2793V13H14.8105V14.2705Z" fill="currentColor"/>
</svg>
