<svg width="24" height="24" viewBox="0 0 24 24" fill="none" xmlns="http://www.w3.org/2000/svg">
<path d="M6.75 16.75H17.3268L14.0385 12.3655L11.2308 16.0192L9.23075 13.4615L6.75 16.75ZM3.5 20.5V3.5H20.5V20.5H3.5ZM5 19H19V5H5V19ZM8.49875 9.75C8.84575 9.75 9.141 9.62858 9.3845 9.38575C9.62817 9.14292 9.75 8.84808 9.75 8.50125C9.75 8.15425 9.62858 7.859 9.38575 7.6155C9.14292 7.37183 8.84808 7.25 8.50125 7.25C8.15425 7.25 7.859 7.37142 7.6155 7.61425C7.37183 7.85708 7.25 8.15192 7.25 8.49875C7.25 8.84575 7.37142 9.141 7.61425 9.3845C7.85708 9.62817 8.15192 9.75 8.49875 9.75Z" fill="currentColor"/>
</svg>
