<svg width="24" height="24" viewBox="0 0 24 24" fill="none" xmlns="http://www.w3.org/2000/svg">
  <path d="M12 11.1385L18.175 7.56923L12 3.99998L5.825 7.56923L12 11.1385ZM3.5 16.8365V7.16148L12 2.27698L20.5 7.16348V11.923H19V8.81148L11.975 12.8615L5 8.81148V15.95L11.3808 19.6365V21.35L3.5 16.8365Z" fill="currentColor"/>
  <path d="M20 16H17V19H20V16Z" fill="currentColor"/>
  <path d="M21 14.2262V13H16V14.2262C16 14.5432 15.5432 15 15.2262 15H14V20H15.2262C15.5432 20 16 20.4568 16 20.7738V22H21V20.7738C21 20.4568 21.4568 20 21.7738 20H23V15H21.7738C21.4568 15 21 14.5432 21 14.2262ZM21 19.13C21 19.447 20.447 20 20.13 20H16.87C16.553 20 16 19.447 16 19.13V15.87C16 15.553 16.553 15 16.87 15H20.13C20.447 15 21 15.553 21 15.87V19.13Z" fill="currentColor"/>

</svg>
