<svg width="24" height="25" viewBox="0 0 24 25" fill="none" xmlns="http://www.w3.org/2000/svg">
  <path d="M12 24.0385V11.5H24V20.5H15.5385L12 24.0385ZM14.9 19H22.5V13H13.5V20.3848L14.9 19Z" fill="currentColor"/>
  <path d="M20 8V6H24L24 10H22.5V7.5H21.5V9.5H17.5V6.5H16V3.5H14.5V6.5H9.5V3.5H8.00001V6.5H6.50001V9.5H2.497V7.5H1.50002V12.5H4.5L4.50002 15.5H7.00001V17.5H8.50001V15.5H11V17H10V19H7.50001V22H4.00001V19H5.50001V17H3.00003L3.00001 14H0L1.85966e-05 6H3.997V8H5.00001V5H6.50001V2H11V5H13V2H17.5V5H19V8H20Z" fill="currentColor"/>
  <path d="M10.5 9H8V12.5H10.5V9Z" fill="currentColor"/>
</svg>
