<svg width="24" height="24" viewBox="0 0 24 24" fill="none" xmlns="http://www.w3.org/2000/svg">
  <path d="M11.0486 2.05118C12.5637 0.626995 14.9596 0.64996 16.4462 2.12015L16.516 2.19073C17.3597 3.06847 17.7011 4.24512 17.5403 5.36488C18.6726 5.20584 19.8626 5.5435 20.7502 6.37786L20.8217 6.44683L20.8673 6.49189L20.9369 6.56248C22.3544 8.03697 22.3544 10.3552 20.9369 11.8297L20.8673 11.9003L12.9531 19.7266C12.8524 19.8262 12.8524 19.9876 12.9531 20.0872L14.5782 21.6943C14.8802 21.993 14.8802 22.4774 14.5782 22.776C14.2761 23.0747 13.7864 23.0746 13.4843 22.7759L11.8592 21.1689C11.1654 20.4828 11.1546 19.3771 11.8267 18.6779L11.8592 18.6449L19.7734 10.8186L19.8152 10.7762C20.6794 9.87731 20.6655 8.4557 19.7734 7.57359L19.7279 7.52853L19.6851 7.4872C18.7904 6.64616 17.3838 6.64617 16.4891 7.4872L16.4463 7.52853L9.83771 14.0638L9.80889 14.0909C9.50526 14.3622 9.03647 14.3531 8.74387 14.0638C8.44184 13.7651 8.44188 13.2808 8.74387 12.9821L15.3524 6.44683L15.3943 6.4045C16.2585 5.50554 16.2444 4.08393 15.3524 3.20185C14.4604 2.3198 13.0228 2.30591 12.1138 3.16052L12.071 3.20185L3.32023 11.8553L3.2914 11.8825C2.98778 12.1537 2.5191 12.1446 2.22651 11.8553C1.92448 11.5566 1.92452 11.0723 2.22651 10.7736L10.9771 2.12015L11.0486 2.05118Z" fill="currentColor"/>
  <path d="M13.1938 4.25641C13.4974 3.98513 13.966 3.99418 14.2587 4.28355C14.5607 4.58225 14.5607 5.06643 14.2587 5.36512L7.78687 11.7652C6.88077 12.6613 6.88069 14.1141 7.78687 15.0103C8.69301 15.9063 10.1621 15.9063 11.0683 15.0103L17.5402 8.61023C17.8422 8.31154 18.332 8.31154 18.634 8.61023C18.9361 8.90892 18.9361 9.39323 18.634 9.69193L12.1621 16.092C10.6755 17.562 8.2796 17.585 6.76453 16.161L6.69303 16.092C5.18279 14.5985 5.18277 12.177 6.69303 10.6835L13.1648 4.28355L13.1938 4.25641Z" fill="currentColor"/>
</svg>
