<svg width="19" height="19" viewBox="0 0 19 19" fill="none" xmlns="http://www.w3.org/2000/svg">
  <path fill-rule="evenodd" clip-rule="evenodd" d="M13 17V13H2V17H13ZM0.5 18.5H14.5V11.5H0.5V18.5Z"
        fill="currentColor" />
  <path fill-rule="evenodd" clip-rule="evenodd" d="M17.5 11.5V7.5H6.5V11.5H17.5ZM5 13H19V6H5V13Z" fill="currentColor" />
  <path fill-rule="evenodd" clip-rule="evenodd" d="M1.5 6V7.5H0V6H1.5Z" fill="currentColor" />
  <path fill-rule="evenodd" clip-rule="evenodd" d="M1.5 3V4.5H0V3H1.5Z" fill="currentColor" />
  <path fill-rule="evenodd" clip-rule="evenodd" d="M1.5 0V1.5H0V0H1.5Z" fill="currentColor" />
  <path fill-rule="evenodd" clip-rule="evenodd" d="M4.5 0V1.5H3V0H4.5Z" fill="currentColor" />
  <path fill-rule="evenodd" clip-rule="evenodd" d="M4.5 6V7.5H3V6H4.5Z" fill="currentColor" />
  <path fill-rule="evenodd" clip-rule="evenodd" d="M7.5 0V1.5H6V0H7.5Z" fill="currentColor" />
  <path fill-rule="evenodd" clip-rule="evenodd" d="M13.5 3V4.5H12V3H13.5Z" fill="currentColor" />
  <path fill-rule="evenodd" clip-rule="evenodd" d="M13.5 0V1.5H12V0H13.5Z" fill="currentColor" />
  <path fill-rule="evenodd" clip-rule="evenodd" d="M10.5 0V1.5H9V0H10.5Z" fill="currentColor" />
  <path fill-rule="evenodd" clip-rule="evenodd" d="M13.5 0V1.5H12V0H13.5Z" fill="currentColor" />
</svg>
