<svg width="22" height="24" viewBox="0 0 22 24" fill="none" xmlns="http://www.w3.org/2000/svg">
<path d="M14.4551 9.26648L14.5342 9.4657L14.7335 9.54578L20.0596 11.6757L14.7335 13.8065L14.5342 13.8856L14.4551 14.0848L12.3243 19.411L10.1944 14.0848L10.1143 13.8856L9.9151 13.8065L4.58795 11.6757L9.9151 9.54578L10.1143 9.4657L10.1944 9.26648L12.3243 3.93933L14.4551 9.26648Z" stroke="currentColor"/>
<path d="M5.37402 18.3477L5.45312 18.5469L5.65234 18.626L7.73438 19.459L5.65234 20.293L5.45312 20.3721L5.37402 20.5713L4.54004 22.6533L3.70703 20.5713L3.62793 20.3721L3.42871 20.293L1.3457 19.459L3.42871 18.626L3.62793 18.5469L3.70703 18.3477L4.54004 16.2646L5.37402 18.3477Z" stroke="currentColor"/>
<path d="M5.37402 3.42871L5.45312 3.62793L5.65234 3.70703L7.73438 4.54004L5.65234 5.37402L5.45312 5.45312L5.37402 5.65234L4.54004 7.73438L3.70703 5.65234L3.62793 5.45312L3.42871 5.37402L1.3457 4.54004L3.42871 3.70703L3.62793 3.62793L3.70703 3.42871L4.54004 1.3457L5.37402 3.42871Z" stroke="currentColor"/>
</svg>
