<svg width="12" height="12" viewBox="0 0 12 12" fill="none" xmlns="http://www.w3.org/2000/svg">
  <path fill-rule="evenodd" clip-rule="evenodd" d="M5.5 2.5H6.5V1H8.75V2.5H9.5V3.5H11.5V7.5H10V8.5H8.75V9H10V11.25H7.5V9.5H6.5V8.5H5.5V9.5H4.5V11.25H2V9H3.25V8.5H2V7.5H0.5V3.5H2.49854V5.75H1.74854V4.25H1.25V6.75H2.75V7.75H4V8.75H4.75V7.75H7.25V8.75H8V7.75H9.25V6.75H10.75V4.25H10.25V5.75H9.5V4.25H8.75V3.25H8V1.75H7.25V3.25H4.75V1.75H4V3.25H3.25V4.25H2.5V2.5H3.25V1H5.5V2.5ZM2.75 10.5H3.75V9.75H2.75V10.5ZM8.25 10.5H9.25V9.75H8.25V10.5Z" fill="currentColor"/>
  <path d="M5.25 6.25H4V4.5H5.25V6.25Z" fill="currentColor"/>
  <path d="M8 6.25H6.75V4.5H8V6.25Z" fill="currentColor"/>
</svg>
