<svg width="24" height="24" viewBox="0 0 24 24" fill="none" xmlns="http://www.w3.org/2000/svg">
<path fill-rule="evenodd" clip-rule="evenodd" d="M16 20V13H5V20H16ZM3.5 21.5H17.5V11.5H3.5V21.5Z" fill="currentColor"/>
<path fill-rule="evenodd" clip-rule="evenodd" d="M8.5 8.5V10H7V8.5H8.5Z" fill="currentColor"/>
<path fill-rule="evenodd" clip-rule="evenodd" d="M8.5 5.5V7H7V5.5H8.5Z" fill="currentColor"/>
<path fill-rule="evenodd" clip-rule="evenodd" d="M8.5 2.5V4H7V2.5H8.5Z" fill="currentColor"/>
<path fill-rule="evenodd" clip-rule="evenodd" d="M11.5 2.5V4H10V2.5H11.5Z" fill="currentColor"/>
<path fill-rule="evenodd" clip-rule="evenodd" d="M14.5 2.5V4H13V2.5H14.5Z" fill="currentColor"/>
<path fill-rule="evenodd" clip-rule="evenodd" d="M20.5 8.5V10H19V8.5H20.5Z" fill="currentColor"/>
<path fill-rule="evenodd" clip-rule="evenodd" d="M20.5 11.5V13H19V11.5H20.5Z" fill="currentColor"/>
<path fill-rule="evenodd" clip-rule="evenodd" d="M20.5 5.5V7H19V5.5H20.5Z" fill="currentColor"/>
<path fill-rule="evenodd" clip-rule="evenodd" d="M20.5 2.5V4H19V2.5H20.5Z" fill="currentColor"/>
<path fill-rule="evenodd" clip-rule="evenodd" d="M17.5 2.5V4H16V2.5H17.5Z" fill="currentColor"/>
</svg>
