<svg width="332" height="398" viewBox="0 0 332 398" fill="none" xmlns="http://www.w3.org/2000/svg">
<path d="M316.341 3.06C310.882 0.429997 305.224 0.0329895 300.857 0.0329895H300.113C295.2 0.0329895 289.393 0.379997 283.736 3.06C274.009 7.527 268.55 16.509 268.55 27.625V94.87C246.963 74.573 218.129 62.662 187.559 62.464C121.456 61.918 67.214 115.267 66.668 181.419C66.569 194.173 68.504 207.374 71.929 218.193C69.646 219.185 67.0161 219.83 64.3851 219.83H64.1871C59.8201 219.731 55.651 217.746 51.284 213.825C43.542 206.828 40.912 196.555 38.827 188.417L37.9341 185.141C36.3961 179.136 31.483 174.67 25.379 173.479C24.485 173.28 23.542 173.28 22.649 173.28C17.538 173.28 12.624 175.662 9.54805 179.93C0.913049 192.039 -1.36996 209.161 3.09604 226.977C5.82604 237.994 11.086 248.713 18.183 257.646C25.924 267.472 35.651 274.767 46.222 278.837C47.661 279.383 49.15 279.928 50.688 280.375H48.058C40.217 280.276 32.773 278.638 26.768 277.199C24.485 276.653 22.302 276.206 20.664 275.909C19.672 275.71 18.58 275.561 17.587 275.561C12.476 275.561 7.46305 277.943 4.38605 282.311C1.01205 287.124 0.664052 293.328 3.19505 298.588C8.00905 308.861 18.034 317.595 32.426 323.898C44.981 329.357 60.1671 332.632 75.1051 333.079H77.288C92.871 333.178 107.759 330.25 120.265 324.543C124.632 322.558 128.801 320.176 132.473 317.546C133.367 322.111 134.756 326.826 136.642 331.292C142.002 344.741 151.282 357.694 163.49 368.959C174.607 379.232 187.708 387.519 200.462 392.333C208.75 395.509 216.591 397.147 223.836 397.147C229.295 397.147 234.308 396.353 238.923 394.616C244.283 392.78 248.203 388.264 249.394 382.706C250.685 376.254 247.856 369.703 242.397 366.23C241.107 365.336 239.221 364.244 237.037 362.954C231.28 359.48 224.035 355.014 217.832 348.662C219.023 349.307 220.114 349.753 221.305 350.299C228.849 353.575 237.136 355.212 245.871 355.312C249.245 355.312 252.62 355.113 256.143 354.666C267.409 353.128 278.426 349.208 288.004 343.103C303.488 333.277 313.413 319.233 315.497 304.494C316.391 298.39 313.512 292.385 308.401 289.01C305.77 287.372 302.842 286.479 299.865 286.479C296.937 286.479 293.959 287.273 291.329 288.861L288.5 290.598C281.602 294.965 273.017 300.325 263.091 300.176H262.446C256.689 299.978 252.322 298.439 249.146 295.462C246.963 293.377 245.424 290.896 244.332 288.166C255.449 282.261 265.721 274.618 274.456 265.338C279.915 264.594 285.274 263.055 290.386 260.872C296.49 258.241 302.148 254.768 307.309 250.5C307.408 250.4 307.656 250.301 307.755 250.053L311.378 246.778C311.577 246.579 311.825 246.331 312.023 246.133C318.227 239.78 323.041 232.485 326.415 224.197C329.79 216.009 331.427 207.275 331.427 198.441V27.526C331.527 16.509 325.968 7.576 316.341 3.06ZM237.335 207.92C230.586 200.922 226.417 193.627 226.516 180.327C226.516 178.144 225.524 175.861 224.333 174.422C222.794 172.784 220.859 171.891 218.874 171.891H218.675C217.683 171.891 216.69 172.089 215.797 172.486C214.854 172.883 214.01 173.479 213.216 174.322C211.926 175.712 210.933 178.044 210.933 180.079C210.834 193.379 206.566 200.724 199.817 207.821C192.919 214.57 183.539 218.838 173.167 218.739C162.795 218.639 153.416 214.272 146.766 207.275C140.116 200.277 135.947 190.699 136.046 180.079C136.046 174.769 137.138 169.757 139.074 165.191C141.009 160.625 143.788 156.556 147.163 153.082C154.061 146.184 163.441 141.966 173.813 142.065L264.481 142.809C272.371 142.909 279.667 145.44 285.671 149.757C287.557 151.097 289.294 152.586 290.882 154.273C297.532 161.171 301.701 170.749 301.602 181.32C301.502 191.89 297.235 201.419 290.336 208.267C289.294 209.309 288.153 210.302 287.011 211.195C280.56 216.208 272.52 219.284 263.736 219.185C253.364 219.284 243.985 214.917 237.335 207.92ZM242.893 229.855C242.794 238.49 234.953 245.339 225.226 245.239C215.499 245.14 207.757 238.143 207.857 229.508C207.956 220.972 215.946 214.024 225.524 214.123C235.251 214.272 242.992 221.22 242.893 229.855ZM142.399 215.91C136.841 213.925 131.927 210.798 127.908 206.63C121.258 199.731 117.089 190.253 117.238 179.881C117.337 169.409 121.605 160.03 128.454 153.281C132.473 149.112 137.635 146.085 143.193 144.199C142.399 144.943 141.654 145.638 140.91 146.383C132.275 154.918 126.965 166.779 126.816 179.881C126.717 193.081 131.927 204.992 140.463 213.726C141.108 214.471 141.853 215.116 142.399 215.91ZM227.062 283.551C228.601 292.484 232.174 300.921 238.625 306.925C244.283 312.186 252.074 315.561 262.297 315.858C277.334 316.305 289.344 308.861 297.334 303.849L300.361 301.864C298.971 312.583 290.982 322.359 280.163 329.258C272.62 334.071 263.786 337.347 254.605 338.538C245.523 339.729 236.392 338.885 228.204 335.362C217.186 330.548 207.708 320.722 202.546 304.246C201.802 301.715 199.073 300.226 196.542 301.069C195.251 301.516 194.16 302.509 193.614 303.7C190.884 309.705 189.594 316.454 190.14 323.898C190.686 330.449 192.77 337.446 196.691 344.94C205.524 361.416 219.916 370.249 229.543 376.155C231.628 377.445 233.365 378.537 234.556 379.331H234.457C227.459 382.259 217.534 381.316 206.963 377.247C196.145 373.078 184.929 366.13 175.103 357.049C165.376 348.116 157.088 337.099 152.274 325.188C147.262 312.881 146.17 299.531 150.984 286.231C151.183 285.685 151.282 285.139 151.282 284.593C151.282 282.658 150.141 280.772 148.255 280.028C145.724 279.035 142.895 280.226 141.902 282.757L141.803 282.956C136.245 295.859 126.419 304.593 114.508 309.903C102.846 315.164 89.3971 317.198 76.1961 316.9C62.8961 316.553 49.894 313.724 39.423 309.159C29.0511 304.593 21.21 298.439 18.133 291.392L18.034 291.293C19.473 291.64 21.408 292.037 23.691 292.583C34.609 295.114 51.0851 298.787 68.6531 293.03C76.6431 290.4 82.9461 286.678 87.7601 282.311C93.1191 277.397 96.8411 271.492 98.8761 265.289C99.7691 262.758 98.429 259.929 95.948 259.085C94.558 258.639 93.1191 258.738 91.9281 259.532C76.9911 267.72 63.542 268.167 52.326 263.899C43.939 260.723 36.694 254.966 31.036 247.77C25.23 240.475 21.111 231.84 18.927 223.106C15.751 210.55 16.7441 197.895 22.9471 189.161L23.84 192.436C26.222 201.617 29.746 215.364 40.961 225.587C48.703 232.584 56.5941 235.612 64.1871 235.711C73.0201 235.909 81.407 232.336 88.603 226.778C90.34 225.389 92.325 224.694 90.34 221.121C85.427 211.195 82.698 195.464 82.797 181.518C83.343 124.1 130.29 77.947 187.807 78.394C227.013 78.692 261.007 100.726 278.426 132.983H278.376C274.456 131.792 270.188 131.246 265.821 131.246H155.699C149.148 131.246 142.945 132.586 137.287 135.018C131.63 137.45 126.518 140.973 122.201 145.34C113.665 154.075 108.355 166.084 108.355 179.384C108.355 185.985 109.645 192.337 112.077 198.094C114.459 203.85 117.933 209.061 122.25 213.428C130.885 222.163 142.647 227.622 155.748 227.622C155.748 227.622 178.031 228.614 185.773 226.431V228.515C185.773 244.147 198.427 257.001 213.713 257.001L260.61 257.299C251.677 266.132 240.958 273.13 228.898 277.596C226.665 278.539 226.417 279.928 227.062 283.551ZM312.222 218.193C309.592 224.545 305.77 230.202 301.205 235.016L297.582 238.292C293.761 241.567 289.393 244.197 284.679 246.133C280.659 247.869 275.399 249.706 271.577 249.606L267.508 249.557L255.995 249.458C259.022 247.125 261.553 243.453 261.553 243.353C261.751 243.006 261.999 242.708 262.198 242.361C262.396 242.063 262.545 241.765 262.744 241.468C262.744 241.468 262.744 241.468 262.744 241.418C262.793 241.368 262.843 241.319 262.843 241.219C265.573 236.654 266.118 230.5 266.118 230.5C266.367 230.5 266.664 230.5 266.962 230.5C267.756 230.5 268.55 230.45 269.344 230.401C270.535 230.351 271.776 230.202 273.066 230.004C275.498 229.656 278.079 229.061 280.758 228.217H280.808C282.446 227.771 284.034 227.125 285.671 226.381C286.317 226.034 287.111 225.736 287.855 225.289C289.939 224.197 292.024 222.907 294.108 221.319C296.192 219.781 298.277 217.994 300.311 215.959C300.659 215.612 300.857 215.314 301.205 214.967C301.85 214.322 302.495 213.677 303.19 212.783C303.835 212.039 304.629 211.046 305.274 210.054C309.095 204.496 312.917 196.109 313.562 183.752C314.554 164.993 306.564 152.437 298.624 144.596C295.249 141.321 291.875 138.939 289.294 137.301C286.714 135.713 284.629 134.919 284.629 134.919C284.58 134.869 284.53 134.869 284.53 134.869V27.427C284.53 22.067 286.813 19.04 290.535 17.402C293.364 16.112 296.639 15.864 300.113 15.864C303.736 15.864 307.011 16.062 309.84 17.402C313.562 19.139 315.845 22.117 315.845 27.526L316.043 198.441C316.043 205.439 314.604 212.089 312.222 218.193Z" fill="#14194D"/>
<path d="M279.371 190.798C285.127 190.798 289.941 185.984 289.941 180.079C290.04 174.173 285.375 169.26 279.569 169.26L279.47 180.079L268.999 179.98C268.899 185.885 273.564 190.798 279.371 190.798Z" fill="#14194D"/>
<path d="M193.268 168.517L193.169 179.335L182.698 179.236C182.598 185.142 187.263 190.055 193.07 190.055C198.826 190.055 203.64 185.241 203.64 179.335C203.739 173.43 199.025 168.517 193.268 168.517Z" fill="#14194D"/>
</svg>
