<svg width="976" height="180" viewBox="0 0 976 180" fill="none" xmlns="http://www.w3.org/2000/svg">
<path d="M972.8 3.79999C970.867 1.79999 968.4 0.799988 965.4 0.799988C962.4 0.799988 959.9 1.79999 957.9 3.79999C955.967 5.73332 955 8.19999 955 11.2C955 14.2 955.967 16.7 957.9 18.7C959.9 20.6333 962.4 21.6 965.4 21.6C968.4 21.6 970.867 20.6333 972.8 18.7C974.8 16.7 975.8 14.2 975.8 11.2C975.8 8.19999 974.8 5.73332 972.8 3.79999Z" fill="black"/>
<path d="M973.4 139.4V39.4H957.3V139.4H973.4Z" fill="black"/>
<path d="M571.4 49.2C563.933 41.9333 554.133 38.3 542 38.3C534.133 38.3 527.467 39.9333 522 43.2C516.667 46.4666 512.367 50.7 509.1 55.9V2.19998H493V139.4H509.1V89.4C509.1 78.2 511.767 69.3333 517.1 62.8C522.567 56.2667 529.933 53 539.2 53C548 53 554.733 55.7333 559.4 61.2C564.133 66.5333 566.5 74.3666 566.5 84.7V139.4H582.6V83.7C582.6 68.0333 578.867 56.5333 571.4 49.2Z" fill="black"/>
<path fill-rule="evenodd" clip-rule="evenodd" d="M618.3 92.6V93.9C618.567 103.7 621.6 111.533 627.4 117.4C633.133 123.333 640.633 126.3 649.9 126.3C657.1 126.3 663.167 124.533 668.1 121C673.233 117.333 676.633 112.3 678.3 105.9H694.6C692.6 116.1 687.7 124.467 679.9 131C672.033 137.4 662.433 140.6 651.1 140.6C641.167 140.6 632.467 138.5 625 134.3C617.533 129.967 611.733 123.967 607.6 116.3C603.533 108.433 601.5 99.4667 601.5 89.4C601.5 79.2 603.467 70.2666 607.4 62.6C611.4 54.8667 617 48.9 624.2 44.7C631.4 40.4333 639.633 38.3 648.9 38.3C658.033 38.3 666.133 40.1667 673.2 43.9C680.267 47.7 685.833 53.2 689.9 60.4C693.967 67.6 696.1 76.0333 696.3 85.7C696.3 87.1 696.2 89.4 696 92.6H618.3ZM619.2 79.2H679.6C678.8 70.7333 675.6 64.1333 670 59.4C664.533 54.7333 657.533 52.4 649 52.4C641.467 52.4 634.8 54.8667 629 59.8C623.267 64.8 620 71.2666 619.2 79.2Z" fill="black"/>
<path d="M767.4 39.4V55.1H759.4C749.867 55.1 743 58.3 738.8 64.7C734.733 71.1 732.7 79 732.7 88.4V139.4H716.6V39.4H730.6L732.7 54.5C735.567 49.9667 739.3 46.3333 743.9 43.6C748.433 40.8 754.767 39.4 762.9 39.4H767.4Z" fill="black"/>
<path d="M431.2 54.1H413.2V39.4H431.2V11.4H447.3V39.4H472.5V54.1H447.3V113.1C447.3 117.3 448.067 120.3 449.6 122.1C451.333 123.833 454.2 124.7 458.2 124.7H475.7V139.4H457.3C447.833 139.4 441.1 137.3 437.1 133.1C433.167 128.967 431.2 122.367 431.2 113.3V54.1Z" fill="black"/>
<path fill-rule="evenodd" clip-rule="evenodd" d="M326.2 92.6V93.9C326.467 103.7 329.467 111.533 335.2 117.4C341 123.333 348.533 126.3 357.8 126.3C364.933 126.3 371 124.533 376 121C381.067 117.333 384.467 112.3 386.2 105.9H402.5C400.5 116.1 395.6 124.467 387.8 131C379.933 137.4 370.3 140.6 358.9 140.6C348.967 140.6 340.3 138.5 332.9 134.3C325.433 129.967 319.6 123.967 315.4 116.3C311.4 108.433 309.4 99.4667 309.4 89.4C309.4 79.2 311.333 70.2666 315.2 62.6C319.267 54.8667 324.9 48.9 332.1 44.7C339.3 40.4333 347.533 38.3 356.8 38.3C365.933 38.3 374.033 40.1667 381.1 43.9C388.167 47.7 393.733 53.2 397.8 60.4C401.8 67.6 403.933 76.0333 404.2 85.7C404.2 87.1 404.067 89.4 403.8 92.6H326.2ZM327.2 79.2H387.6C386.8 70.7333 383.6 64.1333 378 59.4C372.467 54.7333 365.467 52.4 357 52.4C349.4 52.4 342.733 54.8667 337 59.8C331.267 64.8 328 71.2666 327.2 79.2Z" fill="black"/>
<path fill-rule="evenodd" clip-rule="evenodd" d="M289 39.4V134.5C289 164.7 272.467 179.8 239.4 179.8C226.467 179.8 215.9 176.867 207.7 171C199.567 165.067 194.867 156.7 193.6 145.9H210C211.333 152.167 214.667 157 220 160.4C225.4 163.8 232.267 165.5 240.6 165.5C262.2 165.5 273 154.967 273 133.9V122.1C265.8 134.433 254.367 140.6 238.7 140.6C229.367 140.6 221.067 138.567 213.8 134.5C206.6 130.433 200.9 124.567 196.7 116.9C192.633 109.167 190.6 100 190.6 89.4C190.6 79.3333 192.633 70.4667 196.7 62.8C200.9 55.0667 206.667 49.0333 214 44.7C221.267 40.4333 229.5 38.3 238.7 38.3C246.767 38.3 253.667 39.9333 259.4 43.2C265.2 46.3333 269.733 50.8333 273 56.7L275.1 39.4H289ZM273.1 89.8C273.1 82.6 271.733 76.2 269 70.6C266.267 64.8667 262.367 60.4333 257.3 57.3C252.3 54.1667 246.6 52.6 240.2 52.6C230.267 52.6 222.233 56.0667 216.1 63C210.1 69.7333 207.1 78.5333 207.1 89.4C207.1 100.267 210.1 109.167 216.1 116.1C222.233 122.9 230.267 126.3 240.2 126.3C246.6 126.3 252.3 124.8 257.3 121.8C262.367 118.667 266.267 114.333 269 108.8C271.733 103.2 273.1 96.8667 273.1 89.8Z" fill="black"/>
<path fill-rule="evenodd" clip-rule="evenodd" d="M173.8 89.4C173.8 99.4667 171.7 108.367 167.5 116.1C163.3 123.767 157.433 129.767 149.9 134.1C142.433 138.433 133.867 140.6 124.2 140.6C114.533 140.6 105.9 138.433 98.3 134.1C90.8333 129.767 85.0333 123.767 80.9 116.1C76.7 108.367 74.6 99.4667 74.6 89.4C74.6 79.3333 76.7 70.4667 80.9 62.8C85.0333 55.0667 90.8333 49.0333 98.3 44.7C105.9 40.4333 114.533 38.3 124.2 38.3C133.867 38.3 142.433 40.4333 149.9 44.7C157.433 49.0333 163.3 55.0667 167.5 62.8C171.7 70.4667 173.8 79.3333 173.8 89.4ZM157.3 89.4C157.3 82.3333 155.933 76 153.2 70.4C150.467 64.8 146.533 60.4333 141.4 57.3C136.467 54.1667 130.733 52.6 124.2 52.6C117.667 52.6 111.833 54.1667 106.7 57.3C101.767 60.4333 97.9333 64.8 95.2 70.4C92.4666 76 91.1 82.3333 91.1 89.4C91.1 96.4667 92.4666 102.8 95.2 108.4C97.9333 114.067 101.767 118.467 106.7 121.6C111.833 124.733 117.667 126.3 124.2 126.3C130.733 126.3 136.467 124.733 141.4 121.6C146.533 118.467 150.467 114.067 153.2 108.4C155.933 102.8 157.3 96.4667 157.3 89.4Z" fill="black"/>
<path d="M18.3 54.1H0.299988V39.4H18.3V11.4H34.4V39.4H59.6V54.1H34.4V113.1C34.4 117.3 35.1667 120.3 36.7 122.1C38.4333 123.833 41.3 124.7 45.3 124.7H62.8V139.4H44.4C34.9333 139.4 28.2 137.3 24.2 133.1C20.2667 128.967 18.3 122.367 18.3 113.3V54.1Z" fill="black"/>
<path fill-rule="evenodd" clip-rule="evenodd" d="M939.1 124.7V139.4H930.3C923.9 139.4 919.333 138.1 916.6 135.5C913.867 132.9 912.433 129.033 912.3 123.9C904.567 135.033 893.367 140.6 878.7 140.6C867.633 140.6 858.7 137.967 851.9 132.7C845.233 127.5 841.9 120.4 841.9 111.4C841.9 101.333 845.3 93.6 852.1 88.2C859.033 82.8666 869.033 80.2 882.1 80.2H911.5V73.3C911.5 66.7667 909.267 61.7 904.8 58.1C900.467 54.4333 894.4 52.6 886.6 52.6C879.667 52.6 873.9 54.1667 869.3 57.3C864.9 60.3 862.167 64.3333 861.1 69.4H845C846.2 59.6 850.533 51.9667 858 46.5C865.533 41.0333 875.333 38.3 887.4 38.3C900.2 38.3 910.067 41.4333 917 47.7C924 53.8333 927.5 62.7 927.5 74.3V117.4C927.5 122.267 929.733 124.7 934.2 124.7H939.1ZM911.5 93.7H880.5C865.633 93.7 858.2 99.2666 858.2 110.4C858.2 115.333 860.133 119.3 864 122.3C867.933 125.367 873.233 126.9 879.9 126.9C889.7 126.9 897.4 124.333 903 119.2C908.667 114 911.5 107.133 911.5 98.6V93.7Z" fill="black"/>
<path d="M795.9 139C804.4 139 811.2 132.1 811.2 123.7C811.2 115.2 804.4 108.4 795.9 108.4C787.5 108.4 780.6 115.2 780.6 123.7C780.6 132.1 787.5 139 795.9 139Z" fill="black"/>
</svg>
